<?xml version="1.0" encoding="iso-8859-1"?>
<!-- Generator: Adobe Illustrator 16.0.0, SVG Export Plug-In . SVG Version: 6.00 Build 0)  -->
<!DOCTYPE svg PUBLIC "-//W3C//DTD SVG 1.1//EN" "http://www.w3.org/Graphics/SVG/1.1/DTD/svg11.dtd">

<svg viewBox="0 0 24 24" xmlns="http://www.w3.org/2000/svg" role="presentation" aria-hidden="true" focusable="false" style="height: 24px; width: 24px; fill: currentcolor;"><path d="m23.97 15.32-2.78-7.14c-.47-1.22-1.87-2.18-3.18-2.18h-.45c-.45-1.14-1.66-2-2.88-2h-5.35c-1.23 0-2.44.86-2.88 2h-.45c-1.31 0-2.71.96-3.19 2.18l-2.77 7.14-.04.18v2c0 1.39 1.12 2.5 2.5 2.5h19c1.38 0 2.5-1.12 2.5-2.5v-2zm-16.67-8.76c.22-.85 1.15-1.56 2.03-1.56h5.35c.88 0 1.81.71 2.03 1.56l.29 1.1c.06.22-.04.34-.26.34h-9.47c-.22 0-.32-.12-.26-.34zm-3.56 1.99c.33-.84 1.36-1.55 2.26-1.55h.16l-.11.41c-.22.85.35 1.59 1.22 1.59h9.45c.88 0 1.45-.74 1.23-1.59l-.1-.41h.16c.9 0 1.92.71 2.25 1.55l2.51 6.45h-21.54zm19.26 8.95c0 .83-.68 1.5-1.5 1.5h-19c-.83 0-1.5-.67-1.5-1.5v-1.5h22z" fill-rule="evenodd"></path></svg>