<?xml version="1.0" encoding="iso-8859-1"?>
<!-- Generator: Adobe Illustrator 16.0.0, SVG Export Plug-In . SVG Version: 6.00 Build 0)  -->
<!DOCTYPE svg PUBLIC "-//W3C//DTD SVG 1.1//EN" "http://www.w3.org/Graphics/SVG/1.1/DTD/svg11.dtd">

<svg viewBox="0 0 32 32" xmlns="http://www.w3.org/2000/svg" aria-hidden="true" role="presentation" focusable="false" style="display: block; height: 24px; width: 24px; fill: currentcolor;"><path d="M12 0v2h8V0h2v2h6a2 2 0 0 1 1.995 1.85L30 4v15.586a2 2 0 0 1-.467 1.284l-.119.13L21 29.414a2 2 0 0 1-1.238.578l-.176.008H7a5 5 0 0 1-4.995-4.783L2 25V4a2 2 0 0 1 1.85-1.995L4 2h6V0zM4 12v13a3 3 0 0 0 2.824 2.995L7 28h11v-5a5 5 0 0 1 4.783-4.995L23 18h5v-6zm23.585 8H23a3 3 0 0 0-2.995 2.824L20 23v4.585zM4 10h24V4h-6v2h-2V4h-8v2h-2V4H4z"></path></svg>