<?xml version="1.0" encoding="iso-8859-1"?>
<!-- Generator: Adobe Illustrator 16.0.0, SVG Export Plug-In . SVG Version: 6.00 Build 0)  -->
<!DOCTYPE svg PUBLIC "-//W3C//DTD SVG 1.1//EN" "http://www.w3.org/Graphics/SVG/1.1/DTD/svg11.dtd">

<svg viewBox="0 0 32 32" xmlns="http://www.w3.org/2000/svg" aria-hidden="true" role="presentation" focusable="false" style="display: block; height: 24px; width: 24px; fill: currentcolor;"><path d="M28.477 1.07a2 2 0 0 1 2.515 1.754L31 3v23.04a2 2 0 0 1-1.34 1.888l-.153.047-13 3.41a2 2 0 0 1-.813.041l-.201-.041-13-3.41a2 2 0 0 1-1.487-1.776L1 26.04V3a2 2 0 0 1 2.35-1.969l.173.039L16 4.448zM29 3L16.523 6.378a2 2 0 0 1-.873.039l-.173-.039L3 3v23.04l13 3.41 13-3.41zm-2 17.984v2l-9 2.5v-2zm0-7v2l-9 2.5v-2zm0-7v2l-9 2.5v-2z"></path></svg>